<?xml version="1.0" encoding="UTF-8" standalone="no"?>
<svg
   xmlns:dc="http://purl.org/dc/elements/1.1/"
   xmlns:cc="http://creativecommons.org/ns#"
   xmlns:rdf="http://www.w3.org/1999/02/22-rdf-syntax-ns#"
   xmlns:svg="http://www.w3.org/2000/svg"
   xmlns="http://www.w3.org/2000/svg"
   xmlns:sodipodi="http://sodipodi.sourceforge.net/DTD/sodipodi-0.dtd"
   xmlns:inkscape="http://www.inkscape.org/namespaces/inkscape"
   id="Layer_1"
   style="enable-background:new 0 0 24 24;"
   version="1.1"
   viewBox="0 0 24 24"
   xml:space="preserve"
   sodipodi:docname="Wordpress_2.svg"
   inkscape:version="0.92.2 (5c3e80d, 2017-08-06)"><metadata
     id="metadata75"><rdf:RDF><cc:Work
         rdf:about=""><dc:format>image/svg+xml</dc:format><dc:type
           rdf:resource="http://purl.org/dc/dcmitype/StillImage" /></cc:Work></rdf:RDF></metadata><defs
     id="defs73" /><sodipodi:namedview
     pagecolor="#ffffff"
     bordercolor="#666666"
     borderopacity="1"
     objecttolerance="10"
     gridtolerance="10"
     guidetolerance="10"
     inkscape:pageopacity="0"
     inkscape:pageshadow="2"
     inkscape:window-width="640"
     inkscape:window-height="480"
     id="namedview71"
     showgrid="false"
     inkscape:snap-grids="false"
     inkscape:current-layer="Layer_1"
     showguides="false" /><g
     id="g38"><g
       id="g4"><path
         d="M12,24.002c-6.617,0-12-5.383-12-12s5.383-12,12-12s12,5.383,12,12S18.617,24.002,12,24.002z M12,1.002    c-6.065,0-11,4.935-11,11s4.935,11,11,11s11-4.935,11-11S18.065,1.002,12,1.002z"
         id="path2"
         style="fill:#04049a;fill-opacity:1" /></g><g
       id="g8"><path
         d="M11.978,7.253c-0.094,0-0.184,0-0.27,0l-0.208,0l-0.208,0C10.457,7.256,9.191,7.26,8.342,6.976    C8.08,6.889,7.938,6.606,8.026,6.344C8.113,6.082,8.395,5.94,8.658,6.028c0.694,0.231,1.909,0.225,2.631,0.225l0.21,0l0.21,0    c0.728,0,1.938,0.006,2.631-0.225c0.263-0.088,0.545,0.054,0.632,0.316c0.087,0.262-0.054,0.545-0.316,0.632    C13.896,7.231,12.799,7.253,11.978,7.253z"
         id="path6"
         style="fill:#000090;fill-opacity:1" /></g><g
       id="g12"><path
         d="M15.5,23.002c-0.206,0-0.398-0.128-0.471-0.333l-5.5-15.5c-0.092-0.26,0.044-0.546,0.304-0.638    c0.257-0.093,0.546,0.043,0.638,0.304l5.5,15.5c0.092,0.26-0.044,0.546-0.304,0.638C15.612,22.993,15.556,23.002,15.5,23.002z"
         id="path10"
         style="fill:#0000a2;fill-opacity:1" /></g><g
       id="g16"><path
         d="M17.5,20.002c-0.212,0-0.408-0.135-0.476-0.348l-4-12.5c-0.084-0.263,0.061-0.544,0.324-0.628    c0.265-0.084,0.544,0.061,0.628,0.324l4,12.5c0.084,0.263-0.061,0.544-0.324,0.628C17.602,19.994,17.55,20.002,17.5,20.002z"
         id="path14"
         style="fill:#000093;fill-opacity:1" /></g><g
       id="g20"><path
         d="M3.977,7.253c-0.095,0-0.186,0-0.272,0l-0.205,0c-1.111,0-1.671-0.275-1.731-0.307c-0.245-0.128-0.339-0.43-0.212-0.675    c0.128-0.244,0.428-0.34,0.675-0.212l0,0c0,0,0.413,0.193,1.269,0.193l0.208,0c0.728,0.009,1.94,0.006,2.633-0.225    C6.606,5.94,6.887,6.082,6.974,6.344C7.062,6.606,6.92,6.889,6.658,6.976C5.896,7.23,4.8,7.253,3.977,7.253z"
         id="path18"
         style="fill:#0000ad;fill-opacity:1" /></g><g
       id="g24"><path
         d="M7.5,23.002c-0.206,0-0.398-0.128-0.471-0.333l-5.5-15.5c-0.092-0.26,0.044-0.546,0.304-0.638    c0.258-0.093,0.545,0.043,0.638,0.304l5.5,15.5c0.092,0.26-0.044,0.546-0.304,0.638C7.612,22.993,7.556,23.002,7.5,23.002z"
         id="path22"
         style="fill:#06067d;fill-opacity:1" /></g><g
       id="g28"><path
         d="M9.5,20.002c-0.212,0-0.408-0.135-0.476-0.348l-4-12.5C4.939,6.891,5.084,6.61,5.348,6.526    C5.612,6.442,5.892,6.587,5.976,6.85l4,12.5c0.084,0.263-0.061,0.544-0.324,0.628C9.602,19.994,9.55,20.002,9.5,20.002z"
         id="path26"
         style="fill:#000083;fill-opacity:1" /></g><g
       id="g32"><path
         d="m 17.477,22.154 -0.848725,-0.04331 c 0,0 1.700725,-5.918688 2.872725,-9.608688 0,-0.047 0.007,-0.095 0.021,-0.143 C 19.892,11.118 18.904,9.44 18.11,8.09 17.514,7.08 17,6.207 17,5.502 c 0,-2.175 1.253,-2.5 2,-2.5 1.006,0 1.828,0.595 2.443,1.768 0.634,1.209 0.473,3.417 -0.466,6.383 -1.042,3.292 -3.5,11.001 -3.5,11.001 z M 19,4.002 c -0.35,0 -1,0 -1,1.5 0,0.432 0.494,1.271 0.971,2.082 0.45,0.764 0.956,1.623 1.283,2.5 0.893,-3.167 0.52,-4.436 0.304,-4.849 C 19.979,4.13 19.391,4.002 19,4.002 Z"
         id="path30"
         inkscape:connector-curvature="0"
         sodipodi:nodetypes="cccccsscccsscccs"
         style="fill:#000095;fill-opacity:1" /></g><g
       id="g36"><path
         d="M8.5,23.002c-0.055,0-0.11-0.009-0.165-0.028c-0.261-0.091-0.398-0.376-0.307-0.637l3.5-10    c0.092-0.26,0.377-0.397,0.637-0.307c0.261,0.091,0.398,0.376,0.307,0.637l-3.5,10C8.9,22.873,8.707,23.002,8.5,23.002z"
         id="path34"
         style="fill:#000089;fill-opacity:1" /></g></g><g
     id="g40" /><g
     id="g42" /><g
     id="g44" /><g
     id="g46" /><g
     id="g48" /><g
     id="g50" /><g
     id="g52" /><g
     id="g54" /><g
     id="g56" /><g
     id="g58" /><g
     id="g60" /><g
     id="g62" /><g
     id="g64" /><g
     id="g66" /><g
     id="g68" /></svg>